<?xml version="1.0" encoding="utf-8"?>
<!-- Generator: Adobe Illustrator 25.0.0, SVG Export Plug-In . SVG Version: 6.00 Build 0)  -->
<svg version="1.1" id="Camada_1" xmlns="http://www.w3.org/2000/svg" xmlns:xlink="http://www.w3.org/1999/xlink" x="0px" y="0px"
	 viewBox="0 0 512 512" style="enable-background:new 0 0 512 512;" xml:space="preserve">
<style type="text/css">
	.st0{fill:#FFFFFF;}
</style>
<g transform="translate(0.000000,512.000000) scale(0.100000,-0.100000)">
	<path class="st0" d="M1690,4485c-317-70-559-148-858-275c-49-21-57-30-126-139C376,3549,162,3012,65,2461c-50-287-59-412-58-766
		c1-181,5-355,10-385l8-54l130-89c325-221,663-391,1017-512c73-25,138-43,144-41c25,10,274,407,274,437c0,4-26,17-57,29
		c-79,31-335,158-352,175s-13,23,41,62l43,31l100-43c528-225,1131-298,1690-204c257,43,491,114,766,232c35,15,36,15,80-20
		c24-19,44-40,44-46c0-14-209-124-320-168c-44-18-84-36-89-40c-20-18,239-448,270-449c7,0,65,18,130,41c369,127,702,294,1029,516
		l130,89l7,54c3,30,9,159,13,285c28,882-200,1686-702,2477l-74,116l-137,57c-253,105-583,205-826,250l-90,17l-17-24
		c-10-12-42-74-71-137l-53-113l-50,6c-27,3-93,11-145,18c-124,16-645,16-775,0c-55-6-122-14-150-18l-50-5l-65,133
		C1834,4527,1847,4520,1690,4485z M1894,2836c131-64,226-189,262-343c20-84,14-223-14-304c-115-344-492-448-737-204
		c-160,160-199,419-95,632c57,115,150,199,269,240c55,20,80,23,154,20C1809,2873,1831,2868,1894,2836z M3596,2835
		c171-84,274-259,274-465c0-150-47-274-142-375c-260-279-680-133-764,265c-44,209,47,442,216,550c82,53,151,71,253,66
		C3510,2873,3531,2868,3596,2835z"/>
</g>
</svg>
