<?xml version="1.0" encoding="utf-8"?>
<!-- Generator: Adobe Illustrator 25.0.0, SVG Export Plug-In . SVG Version: 6.00 Build 0)  -->
<svg version="1.1" id="Camada_1" xmlns="http://www.w3.org/2000/svg" xmlns:xlink="http://www.w3.org/1999/xlink" x="0px" y="0px"
	 viewBox="0 0 512 512" style="enable-background:new 0 0 512 512;" xml:space="preserve">
<style type="text/css">
	.st0{fill:#FFFFFF;}
</style>
<g transform="translate(0.000000,512.000000) scale(0.100000,-0.100000)">
	<path class="st0" d="M1201,4751c-18-5-29-20-43-61c-73-211-82-438-26-627l21-73l-37-41c-93-102-179-267-224-426
		c-26-94-27-107-27-328c1-175,5-252,18-322c80-425,278-703,622-875c141-71,360-134,545-158c52-6,101-14,108-16c8-2-4-24-33-59
		c-60-74-92-139-118-243l-22-87l-75-27c-312-110-572-23-754,254c-105,160-241,264-388,294c-101,21-198,1-198-41c0-24,56-80,129-130
		c119-80,209-193,283-354c22-47,49-106,61-131c12-24,60-83,107-131c96-97,177-143,315-181c65-17,108-21,230-22c83,0,179,6,214,13
		c34,7,66,10,69,7c3-4,8-113,10-244c6-300-1-324-95-357c-32-12,61-13,627-9c745,5,1032,13,985,25c-38,10-73,42-80,72
		c-2,12-6,238-8,502c-3,453-4,484-24,556c-26,94-68,178-121,246l-41,51l62,6c114,13,311,57,428,96c513,171,768,523,820,1130
		c30,356-48,641-240,877c-46,57-50,65-40,90c61,160,54,444-14,648c-28,82-42,89-151,75c-169-23-341-92-561-225l-110-67l-118,26
		c-230,51-313,60-602,60c-289,1-375-8-616-61l-115-25l-71,45c-184,120-404,215-558,242C1251,4761,1238,4762,1201,4751z"/>
</g>
</svg>
