<?xml version="1.0" encoding="utf-8"?>
<!-- Generator: Adobe Illustrator 25.0.0, SVG Export Plug-In . SVG Version: 6.00 Build 0)  -->
<svg version="1.1" id="Camada_1" xmlns="http://www.w3.org/2000/svg" xmlns:xlink="http://www.w3.org/1999/xlink" x="0px" y="0px"
	 viewBox="0 0 758 165" style="enable-background:new 0 0 758 165;" xml:space="preserve">
<style type="text/css">
	.st0{fill:#FFFFFF;}
	.st1{fill:#EA64DC;}
</style>
<g>
	<path class="st0" d="M192.6,144.8V34.9h33.5c6.7,0,12.5,1.6,17.4,4.9c4.9,3.2,8.7,7.9,11.3,14.1c2.6,6.1,3.9,13.3,3.9,21.6
		c0,8.5-1.3,15.7-3.9,21.7c-2.6,6-6.4,10.5-11.3,13.7c-4.9,3.2-10.7,4.8-17.4,4.8h-22l9.3-13.2v42.4H192.6z M213.4,106L204,91.6
		h20.8c4.3,0,7.6-1.4,9.8-4.2c2.2-2.8,3.3-6.8,3.3-11.9c0-4.9-1.1-8.8-3.3-11.7c-2.2-2.9-5.4-4.3-9.8-4.3H204l9.3-14.3V106z
		 M237.9,144.8l-18.3-40.1h22.2l18.4,40.1H237.9z"/>
	<path class="st0" d="M271.8,144.8l32.4-109.9h20.5l32.5,109.9h-21.6l-25.4-94.7h8.2l-25.4,94.7H271.8z M289.6,123.3l5.4-22.8h35.9
		l5.4,22.8H289.6z"/>
	<path class="st0" d="M373.8,144.8V34.9h33.5c6.7,0,12.5,1.6,17.4,4.9c4.9,3.2,8.7,7.9,11.3,14.1c2.6,6.1,3.9,13.3,3.9,21.6
		c0,8.5-1.3,15.7-3.9,21.7c-2.6,6-6.4,10.5-11.3,13.7c-4.9,3.2-10.7,4.8-17.4,4.8h-22l9.3-13.2v42.4H373.8z M394.6,106l-9.3-14.4
		H406c4.3,0,7.6-1.4,9.8-4.2c2.2-2.8,3.3-6.8,3.3-11.9c0-4.9-1.1-8.8-3.3-11.7c-2.2-2.9-5.4-4.3-9.8-4.3h-20.8l9.3-14.3V106z
		 M419.2,144.8l-18.3-40.1H423l18.4,40.1H419.2z"/>
	<path class="st0" d="M482.5,120.6h38.4v24.2H462V34.9h57.5v24.2h-37.1V120.6z M481,77.5h34.1v23.1H481V77.5z"/>
	<path class="st0" d="M543,144.8V34.9h33.5c6.7,0,12.5,1.6,17.4,4.9c4.9,3.2,8.7,7.9,11.3,14.1c2.6,6.1,3.9,13.3,3.9,21.6
		c0,8.5-1.3,15.7-3.9,21.8c-2.6,6-6.4,10.7-11.3,14c-4.9,3.3-10.7,4.9-17.4,4.9h-22l9.3-13.7v42.4H543z M563.8,106l-9.3-14.6h20.8
		c4.3,0,7.6-1.4,9.8-4.2c2.2-2.8,3.3-6.7,3.3-11.9c0-4.9-1.1-8.8-3.3-11.7c-2.2-2.9-5.4-4.3-9.8-4.3h-20.8l9.3-14.3V106z"/>
	<path class="st0" d="M629.9,144.8V34.9h20.8v109.9H629.9z"/>
	<path class="st0" d="M712.5,147c-5.8,0-11.2-1.4-16.1-4.2c-4.9-2.8-9.2-6.7-12.8-11.8c-3.6-5.1-6.5-11.1-8.5-18.1
		c-2-7-3-14.7-3-23.1c0-8.4,1-16.1,3-23.1c2-7,4.9-13.1,8.5-18.1c3.6-5.1,7.9-9,12.8-11.8c4.9-2.8,10.3-4.2,16.1-4.2
		c6.8,0,12.9,1.8,18.2,5.3c5.4,3.5,9.8,8.7,13.4,15.5l-13.2,17.9c-2.4-4.2-5-7.4-7.9-9.6c-2.9-2.2-6-3.3-9.4-3.3
		c-3,0-5.8,0.7-8.3,2.2c-2.5,1.5-4.7,3.6-6.5,6.4c-1.8,2.8-3.2,6.1-4.2,10c-1,3.9-1.5,8.2-1.5,12.9s0.5,9,1.5,12.9
		c1,3.9,2.4,7.2,4.2,10c1.8,2.8,3.9,4.9,6.5,6.4c2.5,1.5,5.3,2.2,8.3,2.2c3.4,0,6.6-1.1,9.4-3.3c2.9-2.2,5.5-5.4,7.9-9.7l13.2,17.9
		c-3.6,6.8-8,12-13.4,15.5C725.4,145.2,719.3,147,712.5,147z"/>
</g>
<path class="st1" d="M142,154.4h-40.2c-6.1,0-11-4.9-11-11V103c0-6.1,4.9-11,11-11H142c6.1,0,11,4.9,11,11v40.5
	C153,149.5,148.1,154.4,142,154.4z"/>
<path class="st0" d="M142,80.4h-40.2c-6.1,0-11-4.9-11-11V29c0-6.1,4.9-11,11-11H142c6.1,0,11,4.9,11,11v40.5
	C153,75.5,148.1,80.4,142,80.4z"/>
<path class="st0" d="M66,80.4H25.8c-6.1,0-11-4.9-11-11V29c0-6.1,4.9-11,11-11H66c6.1,0,11,4.9,11,11v40.5
	C77,75.5,72.1,80.4,66,80.4z"/>
<path class="st0" d="M66,154.4H25.8c-6.1,0-11-4.9-11-11V103c0-6.1,4.9-11,11-11H66c6.1,0,11,4.9,11,11v40.5
	C77,149.5,72.1,154.4,66,154.4z"/>
</svg>
