<?xml version="1.0" encoding="utf-8"?>
<!-- Generator: Adobe Illustrator 25.0.0, SVG Export Plug-In . SVG Version: 6.00 Build 0)  -->
<svg version="1.1" id="Camada_1" xmlns="http://www.w3.org/2000/svg" xmlns:xlink="http://www.w3.org/1999/xlink" x="0px" y="0px"
	 viewBox="0 0 512 512" style="enable-background:new 0 0 512 512;" xml:space="preserve">
<style type="text/css">
	.st0{fill:#FFFFFF;}
</style>
<g transform="translate(0.000000,512.000000) scale(0.100000,-0.100000)">
	<path class="st0" d="M70,4543c0-48,1-49,260-360c180-218,262-324,269-350s11-435,11-1233V1405l-24-50c-13-28-149-202-305-390
		C10,637,0,624,0,583v-43h760h760v46c0,45-4,50-290,396c-217,263-293,362-305,397c-13,41-15,169-13,1060l3,1013l667-1454l667-1453
		l78-3l78-3l569,1443c313,794,573,1447,578,1453c4,5,7-514,6-1184l-3-1194l-228-221l-228-222l3-39l3-40l1003-3l1002-2v43
		c0,43-1,44-220,262c-146,145-220,225-220,239c0,12,0,688,0,1504c0,1179,2,1487,12,1500c7,10,109,109,226,221l212,203v44v44l-707-2
		l-708-3l-495-1231c-272-677-500-1241-505-1253c-9-20-89,149-585,1233l-574,1256H808H70V4543z"/>
</g>
</svg>
