<?xml version="1.0" encoding="utf-8"?>
<!-- Generator: Adobe Illustrator 25.0.0, SVG Export Plug-In . SVG Version: 6.00 Build 0)  -->
<svg version="1.1" id="Camada_1" xmlns="http://www.w3.org/2000/svg" xmlns:xlink="http://www.w3.org/1999/xlink" x="0px" y="0px"
	 viewBox="0 0 512 512" style="enable-background:new 0 0 512 512;" xml:space="preserve">
<style type="text/css">
	.st0{fill:#FFFFFF;}
</style>
<g transform="translate(0.000000,512.000000) scale(0.100000,-0.100000)">
	<path class="st0" d="M3367,4624c-408-74-731-372-838-776c-19-69-23-110-23-248c-1-91,2-184,7-208l7-44l-67,7
		c-441,40-797,141-1152,326c-328,171-669,440-878,691c-32,38-62,67-67,65c-6-2-27-42-48-90c-144-325-117-700,70-992
		c55-85,145-186,218-244l75-61h-41c-88,0-271,50-370,100c-21,11-43,20-47,20c-14,0,4-183,27-271c91-345,347-618,688-732
		c56-19,96-37,88-40c-45-17-193-29-308-25l-130,6l7-26c11-44,85-184,131-248c176-248,465-418,747-441c42-3,77-9,77-14
		c0-16-224-155-361-223c-312-155-621-222-984-214l-185,4l52-33c77-48,309-165,413-208c561-233,1216-286,1834-149
		c909,202,1658,834,2036,1719c161,378,242,750,251,1150l3,180l73,58c92,75,196,174,275,262c67,76,165,207,159,212c-2,2-32-8-67-22
		c-133-54-440-132-486-123c-11,2-3,12,26,31c76,50,211,189,268,275c50,74,123,221,123,247c0,6-61-20-136-57c-136-66-313-130-451-163
		l-73-17l-61,56C4015,4581,3678,4680,3367,4624z"/>
</g>
</svg>
